<svg width="66" height="66" viewBox="0 0 66 66" fill="none" xmlns="http://www.w3.org/2000/svg">
<rect width="66" height="66" fill="#75DC86"/>
<path d="M33 57.75C46.669 57.75 57.75 46.669 57.75 33C57.75 19.331 46.669 8.25 33 8.25C19.331 8.25 8.25 19.331 8.25 33C8.25 46.669 19.331 57.75 33 57.75Z" stroke="#090A0A" stroke-width="2" stroke-linecap="round" stroke-linejoin="round"/>
<path d="M47.3458 53.1638C43.8211 49.2272 38.6998 46.75 33 46.75C27.3002 46.75 22.179 49.2272 18.6543 53.1638" stroke="#090A0A" stroke-width="2" stroke-linecap="round" stroke-linejoin="round"/>
<path d="M33 38.5C37.5563 38.5 41.25 34.8063 41.25 30.25C41.25 25.6937 37.5563 22 33 22C28.4437 22 24.75 25.6937 24.75 30.25C24.75 34.8063 28.4437 38.5 33 38.5Z" stroke="#090A0A" stroke-width="2" stroke-linecap="round" stroke-linejoin="round"/>
</svg>
